<?xml version="1.0" ?><!DOCTYPE svg  PUBLIC '-//W3C//DTD SVG 1.1//EN'  'http://www.w3.org/Graphics/SVG/1.1/DTD/svg11.dtd'><svg id="Camada_1" style="enable-background:new 0 0 100 100;" version="1.1" viewBox="0 0 100 100" xml:space="preserve" xmlns="http://www.w3.org/2000/svg" xmlns:xlink="http://www.w3.org/1999/xlink"><path d="M35.4,69.2h-3.5c-0.8,0-1.5,0.7-1.5,1.5s0.7,1.5,1.5,1.5h3.5v3.4c0,0.8,0.7,1.5,1.5,1.5s1.5-0.7,1.5-1.5v-3.4h3.5  c0.8,0,1.5-0.7,1.5-1.5s-0.7-1.5-1.5-1.5h-3.5V62c8.4-0.8,15-7.8,15-16.4c0-2.8-0.7-5.6-2.1-8c-0.4-0.7-1.3-1-2-0.6  c-0.7,0.4-1,1.3-0.6,2c1.1,2,1.7,4.3,1.7,6.6c0,7.4-6.1,13.5-13.5,13.5s-13.5-6.1-13.5-13.5s6.1-13.5,13.5-13.5  c1.8,0,3.6,0.4,5.3,1.1c0.8,0.3,1.6,0,2-0.8c0.3-0.8,0-1.6-0.8-2c-2-0.9-4.2-1.3-6.4-1.3c-9.1,0-16.5,7.4-16.5,16.5  c0,8.6,6.6,15.7,15,16.4V69.2z"/><path d="M79.5,23.8c-0.2-0.4-0.4-0.7-0.8-0.8c0,0,0,0,0,0c-0.2-0.1-0.4-0.1-0.5-0.1H71c-0.8,0-1.5,0.7-1.5,1.5s0.7,1.5,1.5,1.5h3.4  l-7,7c-3-2.5-6.7-3.8-10.6-3.8c-4.4,0-8.6,1.7-11.7,4.8c-5.2,5.2-6.3,13.3-2.8,19.7c0.4,0.7,1.3,1,2,0.6c0.7-0.4,1-1.3,0.6-2  c-2.9-5.2-2-11.9,2.3-16.1c2.5-2.5,5.9-4,9.5-4c3.6,0,7,1.4,9.5,4s4,5.9,4,9.5c0,3.6-1.4,7-4,9.5c-3.9,3.9-9.7,5-14.7,2.9  c-0.8-0.3-1.6,0-2,0.8c-0.3,0.8,0,1.6,0.8,2c2.1,0.9,4.2,1.3,6.4,1.3c4.3,0,8.5-1.7,11.7-4.8c3.1-3.1,4.8-7.3,4.8-11.7  c0-3.9-1.4-7.6-3.8-10.6l7-7v3.4c0,0.8,0.7,1.5,1.5,1.5s1.5-0.7,1.5-1.5v-7.1C79.6,24.2,79.6,24,79.5,23.8  C79.5,23.8,79.5,23.8,79.5,23.8z"/></svg>