<?xml version="1.0" ?><!DOCTYPE svg  PUBLIC '-//W3C//DTD SVG 1.1//EN'  'http://www.w3.org/Graphics/SVG/1.1/DTD/svg11.dtd'><svg height="141px" style="enable-background:new 0 0 129 141;" version="1.1" viewBox="0 0 129 141" width="129px" xml:space="preserve" xmlns="http://www.w3.org/2000/svg" xmlns:xlink="http://www.w3.org/1999/xlink"><style type="text/css">
<![CDATA[
	.st0{fill:#EF3E42;}
	.st1{fill:#FFFFFF;}
	.st2{fill:none;}
	.st3{fill-rule:evenodd;clip-rule:evenodd;fill:#FFFFFF;}
]]>
</style><defs/><path d="M123,65c1.5,4.7-3.7,7.7-3.7,7.7l-26,18.9l10,30.6c0,0,2.4,5.5-1.6,8.4c-4,2.9-8.4-1.1-8.4-1.1l-26-18.9l-26,19  c0,0-4.5,4-8.5,1.1c-4-2.9-1.6-8.4-1.6-8.4l10-30.6L15.1,72.7c0,0-5.2-3-3.6-7.7c1.5-4.7,7.5-4.1,7.5-4.1l32.2,0L61,30.3  c0,0,1.3-5.8,6.2-5.8s6.2,5.8,6.2,5.8l9.9,30.6l32.2,0C115.5,60.9,121.5,60.3,123,65L123,65z"/><rect class="st2" height="141" id="_x3C_Slice_x3E__100_" width="129"/></svg>